# Poprawiony Cube.obj - 24 wierzchołki dla poprawnego mapowania UV
o Cube

# Wierzchołki (Position)
v -1.0 -1.0  1.0
v  1.0 -1.0  1.0
v -1.0  1.0  1.0
v  1.0  1.0  1.0
v -1.0  1.0 -1.0
v  1.0  1.0 -1.0
v -1.0 -1.0 -1.0
v  1.0 -1.0 -1.0

# Współrzędne UV (Texture Coords)
vt 0.0 0.0
vt 1.0 0.0
vt 0.0 1.0
vt 1.0 1.0

# Normalne (Normals)
vn  0.0  0.0  1.0
vn  0.0  0.0 -1.0
vn  0.0  1.0  0.0
vn  0.0 -1.0  0.0
vn  1.0  0.0  0.0
vn -1.0  0.0  0.0

# Ścianki (Format: v/vt/vn)
# Przód
f 1/1/1 2/2/1 4/4/1
f 4/4/1 3/3/1 1/1/1
# Tył
f 8/1/2 7/2/2 5/4/2
f 5/4/2 6/3/2 8/1/2
# Góra
f 3/1/3 4/2/3 6/4/3
f 6/4/3 5/3/3 3/1/3
# Dół
f 7/1/4 8/2/4 2/4/4
f 2/4/4 1/3/4 7/1/4
# Prawa
f 2/1/5 8/2/5 6/4/5
f 6/4/5 4/3/5 2/1/5
# Lewa
f 7/1/6 1/2/6 3/4/6
f 3/4/6 5/3/6 7/1/6