# Blender 4.5.4 LTS
# www.blender.org
o Plane
v 16.000000 0.180527 -15.999996
v -15.999996 0.180527 -16.000000
v 15.999996 0.180527 16.000000
v -16.000000 0.180527 15.999996
v 15.999998 0.180527 14.476194
v 15.999998 0.180527 12.952385
v 15.999998 0.180527 11.428576
v 15.999998 0.180527 9.904767
v 16.000000 0.180527 8.380958
v 16.000000 0.180527 6.857147
v 16.000000 0.180527 5.333338
v 16.000000 0.180527 3.809528
v 16.000000 0.180527 2.285718
v 16.000000 0.180527 0.761908
v 16.000000 0.180527 -0.761901
v 16.000000 0.180527 -2.285711
v 16.000000 0.180527 -3.809520
v 16.000000 0.986656 -5.333329
v 16.000000 0.986656 -6.857139
v 16.000000 0.986656 -8.380949
v 16.000000 0.180527 -9.904758
v 16.000000 0.180527 -11.428570
v 16.000000 0.180527 -12.952379
v 16.000000 0.180527 -14.476187
v 14.476194 0.180527 -15.999998
v 12.952385 0.180527 -15.999998
v 11.428576 0.180527 -15.999998
v 9.904766 0.180527 -15.999998
v 8.380957 0.180527 -16.000000
v 6.857145 0.180527 -16.000000
v 5.333336 0.180527 -16.000000
v 3.809526 0.180527 -16.000000
v 2.285717 0.180527 -16.000000
v 0.761908 0.180527 -16.000000
v -0.761902 0.180527 -16.000000
v -2.285712 0.180527 -16.000000
v -3.809521 0.180527 -16.000000
v -5.333331 0.180527 -16.000000
v -6.857141 0.180527 -16.000000
v -8.380950 0.180527 -16.000000
v -9.904759 0.180527 -16.000000
v -11.428570 0.180527 -16.000000
v -12.952379 0.180527 -16.000000
v -14.476187 0.180527 -16.000000
v -15.999998 0.180527 -14.476194
v -15.999998 0.180527 -12.952385
v -15.999998 0.180527 -11.428576
v -15.999998 0.180527 -9.904765
v -16.000000 0.180527 -8.380956
v -16.000000 0.180527 -6.857145
v -16.000000 0.180527 -5.333336
v -16.000000 0.180527 -3.809526
v -16.000000 0.180527 -2.285716
v -16.000000 0.180527 -0.761906
v -16.000000 0.180527 0.761903
v -16.000000 0.180527 2.285713
v -16.000000 0.180527 3.809522
v -16.000000 0.180527 5.333331
v -16.000000 0.180527 6.857141
v -16.000000 0.180527 8.380951
v -16.000000 0.180527 9.904760
v -16.000000 0.180527 11.428570
v -16.000000 0.180527 12.952379
v -16.000000 0.180527 14.476187
v -14.476194 0.180527 15.999998
v -12.952385 0.180527 15.999998
v -11.428576 0.180527 15.999998
v -9.904766 0.180527 15.999998
v -8.380957 0.180527 16.000000
v -6.857145 0.180527 16.000000
v -5.333336 0.180527 16.000000
v -3.809527 0.180527 16.000000
v -2.285717 0.180527 16.000000
v -0.761907 0.180527 16.000000
v 0.761903 0.180527 16.000000
v 2.285712 0.180527 16.000000
v 3.809521 0.180527 16.000000
v 5.333331 0.180527 16.000000
v 6.857141 0.180527 16.000000
v 8.380950 0.180527 16.000000
v 9.904759 0.180527 16.000000
v 11.428570 0.180527 16.000000
v 12.952379 0.180527 16.000000
v 14.476187 0.180527 16.000000
v 14.476193 0.180527 -14.476189
v 14.476193 0.180527 -12.952379
v 14.476193 0.180527 -11.428570
v 14.476193 0.180527 -9.904760
v 14.476191 0.986656 -8.380951
v 14.476191 0.986656 -6.857140
v 14.476191 0.986656 -5.333330
v 14.476191 0.180527 -3.809521
v 14.476191 0.180527 -2.285712
v 14.476191 0.180527 -0.761902
v 14.476191 0.180527 0.761908
v 14.476191 0.180527 2.285717
v 14.476191 0.180527 3.809526
v 14.476191 0.180527 5.333337
v 14.476191 0.204326 6.857147
v 14.476191 0.861822 8.380955
v 14.476189 0.861822 9.904764
v 14.476189 0.204326 11.428574
v 14.476189 0.180527 12.952383
v 14.476189 0.180527 14.476193
v 12.952384 0.180527 -14.476189
v 12.952384 0.180527 -12.952379
v 12.952384 0.204326 -11.428570
v 12.952384 0.861824 -9.904760
v 12.952381 1.667953 -8.380951
v 12.952381 1.667953 -6.857141
v 12.952381 1.667953 -5.333331
v 12.952381 0.861824 -3.809521
v 12.952381 0.861824 -2.285712
v 12.952381 0.861824 -0.761902
v 12.952381 0.869380 0.761908
v 12.952381 0.995759 2.285717
v 12.952381 0.995759 3.809526
v 12.952381 0.869380 5.333336
v 12.952381 0.861824 6.857145
v 12.952381 2.821146 8.380955
v 12.952379 2.821146 9.904764
v 12.952379 0.861823 11.428574
v 12.952379 0.180527 12.952383
v 12.952379 0.180527 14.476193
v 11.428575 0.180527 -14.476189
v 11.428575 0.180527 -12.952379
v 11.428575 0.861822 -11.428570
v 11.428575 2.821146 -9.904760
v 11.428572 4.205131 -8.380951
v 11.428572 5.866982 -6.857141
v 11.428572 5.866982 -5.333331
v 11.428572 4.475032 -3.809522
v 11.428572 4.383052 -2.285712
v 11.428572 3.576923 -0.761902
v 11.428572 3.576923 0.761907
v 11.428572 4.339913 2.285717
v 11.428572 4.332022 3.809526
v 11.428572 3.423883 5.333336
v 11.428572 2.924448 6.857145
v 11.428572 2.820828 8.380955
v 11.428570 2.821146 9.904764
v 11.428570 0.861823 11.428574
v 11.428570 0.180527 12.952383
v 11.428570 0.180527 14.476193
v 9.904764 0.180527 -14.476189
v 9.904764 0.180527 -12.952379
v 9.904764 0.861822 -11.428570
v 9.904764 2.821146 -9.904760
v 9.904762 4.205132 -8.380951
v 9.904762 5.866982 -6.857141
v 9.904762 5.866982 -5.333332
v 9.904762 4.745149 -3.809522
v 9.904762 5.146042 -2.285712
v 9.904762 4.339913 -0.761902
v 9.904762 4.339913 0.761907
v 9.904762 4.339913 2.285717
v 9.904762 4.111841 3.809526
v 9.904762 3.396038 5.333335
v 9.904762 2.607357 6.857145
v 9.904762 2.657838 8.380955
v 9.904760 2.821146 9.904764
v 9.904760 0.861823 11.428574
v 9.904760 0.180527 12.952383
v 9.904760 0.180527 14.476193
v 8.380955 0.180527 -14.476191
v 8.380955 0.180527 -12.952381
v 8.380955 0.204326 -11.428572
v 8.380955 0.861822 -9.904762
v 8.380953 3.647460 -8.380953
v 8.380953 4.205132 -6.857141
v 8.380953 4.205132 -5.333332
v 8.380953 4.383052 -3.809522
v 8.380953 5.146042 -2.285713
v 8.380953 4.339913 -0.761903
v 8.380953 3.576923 0.761907
v 8.380953 3.576923 2.285716
v 8.380953 3.279488 3.809526
v 8.380953 1.875646 5.333335
v 8.380953 1.308805 6.857145
v 8.380953 2.468410 8.380955
v 8.380951 2.821146 9.904764
v 8.380951 0.861823 11.428574
v 8.380951 0.180527 12.952383
v 8.380951 0.180527 14.476191
v 6.857145 0.180527 -14.476191
v 6.857145 0.180527 -12.952381
v 6.857145 0.180527 -11.428572
v 6.857145 -0.340374 -9.904762
v 6.857145 2.821146 -8.380953
v 6.857144 2.425079 -6.857141
v 6.857144 2.425079 -5.333332
v 6.857143 3.131477 -3.809522
v 6.857143 3.576923 -2.285713
v 6.857143 3.576923 -0.761903
v 6.857143 3.131477 0.761907
v 6.857143 2.821146 2.285716
v 6.857143 2.376354 3.809526
v 6.857142 0.706010 5.333335
v 6.857142 0.694744 6.857145
v 6.857142 2.373712 8.380955
v 6.857142 2.821146 9.904764
v 6.857142 0.861823 11.428574
v 6.857141 0.180527 12.952383
v 6.857141 0.180527 14.476191
v 5.333336 0.180527 -14.476191
v 5.333336 0.180527 -12.952381
v 5.333336 0.180527 -11.428572
v 5.333336 0.861822 -9.904762
v 5.333336 1.618950 -8.380953
v 5.333335 1.618950 -6.857141
v 5.333335 1.618950 -5.333332
v 5.333334 1.618950 -3.809523
v 5.333334 0.675226 -2.285713
v 5.333334 0.237242 -0.761903
v 5.333334 0.237242 0.761907
v 5.333334 0.237242 2.285716
v 5.333334 -0.266135 3.809526
v 5.333333 -0.840262 5.333335
v 5.333333 -0.688919 6.857145
v 5.333333 0.461722 8.380955
v 5.333333 0.861822 9.904764
v 5.333333 0.204326 11.428574
v 5.333332 0.180527 12.952383
v 5.333331 0.180527 14.476191
v 3.809526 0.180527 -14.476191
v 3.809526 0.180527 -12.952381
v 3.809526 0.650682 -11.428572
v 3.809526 1.349127 -9.904762
v 3.809526 1.842238 -8.380953
v 3.809525 0.640043 -6.857141
v 3.809525 0.640043 -5.333332
v 3.809525 1.842238 -3.809523
v 3.809525 -0.008124 -2.285713
v 3.809524 -1.490932 -0.761903
v 3.809524 -1.490932 0.761906
v 3.809524 -1.490932 2.285716
v 3.809524 -1.536994 3.809525
v 3.809524 -1.126649 5.333335
v 3.809523 -0.589460 6.857145
v 3.809523 0.040242 8.380955
v 3.809523 0.180527 9.904764
v 3.809522 0.180527 11.428574
v 3.809522 0.180527 12.952383
v 3.809522 0.180527 14.476191
v 2.285717 0.180527 -14.476191
v 2.285717 0.180527 -12.952381
v 2.285717 1.325539 -11.428572
v 2.285716 2.481482 -9.904762
v 2.285716 2.481482 -8.380953
v 2.285716 2.481482 -6.857141
v 2.285716 2.481482 -5.333332
v 2.285715 2.481482 -3.809523
v 2.285715 0.895303 -2.285714
v 2.285715 -1.490932 -0.761904
v 2.285715 -1.490932 0.761906
v 2.285715 -1.490932 2.285715
v 2.285714 -1.662984 3.809525
v 2.285714 -1.430847 5.333335
v 2.285714 -1.256657 6.857145
v 2.285714 -0.344663 8.380953
v 2.285713 0.180527 9.904762
v 2.285713 0.180527 11.428571
v 2.285713 0.180527 12.952380
v 2.285712 0.180527 14.476191
v 0.761907 0.180527 -14.476191
v 0.761907 0.180527 -12.952381
v 0.761907 1.325539 -11.428572
v 0.761907 2.481482 -9.904762
v 0.761906 2.903709 -8.380953
v 0.761906 3.509771 -6.857142
v 0.761906 2.903709 -5.333333
v 0.761906 2.481482 -3.809523
v 0.761906 0.895303 -2.285714
v 0.761905 -1.490932 -0.761904
v 0.761905 -1.490932 0.761906
v 0.761905 -1.581861 2.285715
v 0.761905 -1.856710 3.809525
v 0.761904 -1.594508 5.333334
v 0.761904 -1.499751 6.857143
v 0.761904 -0.361023 8.380953
v 0.761904 0.180527 9.904762
v 0.761903 0.180527 11.428571
v 0.761903 0.180527 12.952380
v 0.761903 0.180527 14.476191
v -0.761902 0.180527 -14.476191
v -0.761903 0.180527 -12.952381
v -0.761903 1.325539 -11.428572
v -0.761903 2.481482 -9.904762
v -0.761903 3.509771 -8.380953
v -0.761904 4.547874 -6.857142
v -0.761904 3.509771 -5.333333
v -0.761904 2.481482 -3.809523
v -0.761904 0.895303 -2.285714
v -0.761904 -1.490932 -0.761904
v -0.761905 -1.490932 0.761906
v -0.761905 -1.833659 2.285715
v -0.761905 -1.648601 3.809525
v -0.761905 -1.539593 5.333334
v -0.761906 -1.413344 6.857143
v -0.761906 -0.197702 8.380953
v -0.761906 0.180527 9.904762
v -0.761906 0.180527 11.428571
v -0.761907 0.180527 12.952380
v -0.761907 0.180527 14.476191
v -2.285712 0.180527 -14.476191
v -2.285712 0.180527 -12.952381
v -2.285712 1.325539 -11.428572
v -2.285713 2.481482 -9.904762
v -2.285713 3.509771 -8.380953
v -2.285713 4.547874 -6.857143
v -2.285713 3.509771 -5.333334
v -2.285714 2.481482 -3.809524
v -2.285714 0.895303 -2.285714
v -2.285714 -1.490932 -0.761904
v -2.285714 -1.490932 0.761905
v -2.285714 -1.581861 2.285715
v -2.285715 -1.703654 3.809525
v -2.285715 -1.302641 5.333333
v -2.285715 -1.278097 6.857142
v -2.285715 -0.936206 8.380953
v -2.285716 -0.818476 9.904762
v -2.285716 -0.818476 11.428571
v -2.285716 0.180527 12.952380
v -2.285717 0.180527 14.476191
v -3.809522 0.180527 -14.476191
v -3.809522 0.180527 -12.952381
v -3.809522 1.325539 -11.428572
v -3.809522 2.481482 -9.904762
v -3.809523 2.903709 -8.380953
v -3.809523 3.509771 -6.857143
v -3.809523 2.903709 -5.333334
v -3.809523 2.481482 -3.809524
v -3.809524 1.230687 -2.285714
v -3.809524 -0.569875 -0.761904
v -3.809524 -1.315539 0.761905
v -3.809524 -2.535131 2.285715
v -3.809524 -2.535131 3.809524
v -3.809525 -2.535131 5.333333
v -3.809525 -2.535131 6.857142
v -3.809525 -2.535131 8.380951
v -3.809525 -2.535131 9.904760
v -3.809526 -0.818476 11.428570
v -3.809526 0.180527 12.952379
v -3.809526 0.180527 14.476191
v -5.333331 0.180527 -14.476191
v -5.333331 0.180527 -12.952381
v -5.333331 1.325539 -11.428572
v -5.333331 2.481482 -9.904762
v -5.333331 2.481482 -8.380953
v -5.333333 2.481482 -6.857143
v -5.333333 2.481482 -5.333334
v -5.333333 2.481482 -3.809524
v -5.333333 1.325540 -2.285715
v -5.333333 0.180527 -0.761905
v -5.333333 -0.818476 0.761905
v -5.333333 -2.535131 2.285714
v -5.333333 -2.535131 3.809524
v -5.333334 -2.535131 5.333333
v -5.333334 -2.535131 6.857142
v -5.333335 -2.535131 8.380951
v -5.333335 -2.535131 9.904760
v -5.333335 -0.818476 11.428570
v -5.333335 0.180527 12.952379
v -5.333336 0.180527 14.476191
v -6.857141 0.180527 -14.476191
v -6.857141 0.180527 -12.952381
v -6.857141 1.325539 -11.428572
v -6.857141 2.481482 -9.904762
v -6.857141 2.481482 -8.380953
v -6.857142 2.481482 -6.857143
v -6.857142 2.481482 -5.333334
v -6.857142 2.481482 -3.809524
v -6.857142 1.325540 -2.285715
v -6.857142 0.180527 -0.761905
v -6.857142 0.180527 0.761905
v -6.857142 -0.818476 2.285714
v -6.857142 -0.818476 3.809524
v -6.857143 -0.818476 5.333333
v -6.857143 -0.818476 6.857142
v -6.857144 0.180527 8.380951
v -6.857144 0.180527 9.904760
v -6.857144 0.180527 11.428570
v -6.857145 0.180527 12.952379
v -6.857145 0.180527 14.476191
v -8.380950 0.180527 -14.476191
v -8.380950 0.180527 -12.952381
v -8.380950 1.325539 -11.428572
v -8.380950 2.481482 -9.904762
v -8.380950 2.481482 -8.380953
v -8.380950 2.481482 -6.857143
v -8.380950 2.481482 -5.333334
v -8.380950 2.481482 -3.809525
v -8.380952 1.325540 -2.285715
v -8.380952 0.180527 -0.761905
v -8.380952 0.180527 0.761905
v -8.380952 0.180527 2.285714
v -8.380954 0.180527 3.809524
v -8.380954 0.180527 5.333333
v -8.380954 0.180527 6.857142
v -8.380954 0.180527 8.380951
v -8.380954 0.666482 9.904760
v -8.380954 0.666482 11.428570
v -8.380954 0.666482 12.952379
v -8.380955 0.666482 14.476191
v -9.904759 0.180527 -14.476193
v -9.904759 0.180527 -12.952384
v -9.904759 0.650682 -11.428575
v -9.904759 1.325539 -9.904764
v -9.904759 2.481482 -8.380955
v -9.904759 2.481482 -6.857143
v -9.904759 2.481482 -5.333334
v -9.904759 2.481482 -3.809525
v -9.904761 1.325540 -2.285715
v -9.904761 0.180527 -0.761905
v -9.904761 0.180527 0.761904
v -9.904761 0.180527 2.285714
v -9.904763 0.180527 3.809523
v -9.904763 0.180527 5.333333
v -9.904763 0.180527 6.857142
v -9.904763 0.666482 8.380951
v -9.904763 0.666482 9.904760
v -9.904763 0.666482 11.428570
v -9.904763 0.666482 12.952379
v -9.904764 0.666482 14.476189
v -11.428570 0.180527 -14.476193
v -11.428570 0.180527 -12.952384
v -11.428570 0.180527 -11.428575
v -11.428570 1.325539 -9.904764
v -11.428570 2.481482 -8.380955
v -11.428570 2.481482 -6.857144
v -11.428570 2.481482 -5.333335
v -11.428570 2.481482 -3.809525
v -11.428571 1.325540 -2.285716
v -11.428571 0.180527 -0.761906
v -11.428571 0.180527 0.761904
v -11.428571 0.180527 2.285713
v -11.428574 0.180527 3.809523
v -11.428574 0.180527 5.333333
v -11.428574 0.180527 6.857142
v -11.428574 0.666482 8.380951
v -11.428574 0.666482 9.904760
v -11.428574 0.666482 11.428570
v -11.428574 0.666482 12.952379
v -11.428575 0.666482 14.476189
v -12.952379 0.180527 -14.476193
v -12.952379 0.180527 -12.952384
v -12.952379 0.180527 -11.428575
v -12.952379 1.325539 -9.904764
v -12.952379 2.481482 -8.380955
v -12.952379 2.481482 -6.857144
v -12.952379 2.481482 -5.333335
v -12.952379 2.481482 -3.809525
v -12.952380 1.325540 -2.285716
v -12.952380 0.180527 -0.761906
v -12.952380 0.180527 0.761904
v -12.952380 0.180527 2.285713
v -12.952383 0.180527 3.809523
v -12.952383 0.180527 5.333333
v -12.952383 0.180527 6.857142
v -12.952383 0.666482 8.380951
v -12.952383 0.666482 9.904760
v -12.952383 0.666482 11.428570
v -12.952383 0.666482 12.952379
v -12.952384 0.666482 14.476189
v -14.476189 0.180527 -14.476193
v -14.476189 0.180527 -12.952384
v -14.476189 0.180527 -11.428575
v -14.476189 0.650682 -9.904764
v -14.476191 1.325539 -8.380955
v -14.476191 1.325539 -6.857145
v -14.476191 1.325539 -5.333336
v -14.476191 1.325539 -3.809526
v -14.476191 0.650682 -2.285716
v -14.476191 0.180527 -0.761906
v -14.476191 0.180527 0.761904
v -14.476191 0.180527 2.285713
v -14.476191 0.180527 3.809523
v -14.476191 0.180527 5.333331
v -14.476191 0.180527 6.857141
v -14.476191 0.666482 8.380951
v -14.476193 0.666482 9.904760
v -14.476193 0.666482 11.428570
v -14.476193 0.180527 12.952379
v -14.476193 0.180527 14.476189
vn -0.0000 1.0000 -0.0000
vn -0.0000 0.9527 0.3038
vn -0.2907 0.9116 0.2907
vn -0.0000 0.8839 -0.4676
vn -0.0000 0.8839 0.4676
vn 0.0156 0.9999 -0.0000
vn 0.4082 0.9129 -0.0000
vn 0.3675 0.8221 -0.4349
vn 0.3675 0.8221 0.4349
vn 0.4119 0.9112 -0.0000
vn 0.4717 0.8817 -0.0000
vn 0.4119 0.9111 -0.0142
vn 0.3683 0.8536 -0.3683
vn 0.7894 0.6139 -0.0000
vn 0.3683 0.8536 0.3683
vn -0.0000 0.9999 0.0156
vn -0.0000 0.9999 -0.0156
vn 0.7508 0.5839 -0.3089
vn 0.8573 0.5149 -0.0000
vn 0.9400 0.3411 -0.0000
vn 0.9025 0.3806 0.2014
vn 0.9178 0.3972 -0.0000
vn 0.8720 0.4894 -0.0000
vn 0.8720 0.4894 -0.0024
vn 0.8707 0.4901 -0.0406
vn 0.9096 0.4155 -0.0000
vn 0.8580 0.5118 0.0425
vn 0.8043 0.5942 0.0029
vn 0.6391 0.4722 -0.6071
vn -0.0002 1.0000 -0.0000
vn -0.0000 0.6139 0.7894
vn -0.0000 0.9129 0.4082
vn -0.0000 0.9129 -0.4082
vn -0.0000 0.6139 -0.7894
vn -0.0000 0.7403 -0.6723
vn -0.0000 0.6758 -0.7371
vn 0.1298 0.7321 0.6687
vn 0.1742 0.9829 0.0593
vn 0.4047 0.8083 0.4276
vn 0.4477 0.8942 -0.0000
vn 0.4086 0.8161 -0.4086
vn -0.0000 1.0000 0.0052
vn -0.1232 0.8525 0.5080
vn -0.0174 0.9501 0.3114
vn -0.2033 0.9769 0.0664
vn -0.0000 1.0000 -0.0002
vn -0.3665 0.8494 -0.3798
vn -0.6196 0.4819 -0.6196
vn -0.2615 0.7145 -0.6489
vn -0.5933 0.5440 -0.5933
vn -0.7371 0.6758 -0.0000
vn -0.6599 0.6051 0.4455
vn -0.0000 0.9671 -0.2544
vn -0.4477 0.8942 -0.0000
vn -0.4438 0.8863 0.1327
vn -0.4432 0.8114 0.3811
vn -0.6632 0.6647 0.3440
vn -0.1233 0.9918 -0.0329
vn -0.0000 0.9943 -0.1066
vn -0.0156 0.9998 -0.0156
vn -0.5866 0.7436 -0.3208
vn -0.2519 0.4644 -0.8490
vn -0.7390 0.6326 -0.2315
vn -0.7597 0.6503 -0.0000
vn -0.6321 0.7696 -0.0899
vn -0.6774 0.6578 -0.3294
vn -0.6731 0.6537 0.3458
vn -0.4086 0.8161 0.4086
vn -0.2806 0.9598 -0.0000
vn -0.4377 0.8825 0.1723
vn -0.3996 0.6742 0.6211
vn -0.5840 0.7608 0.2830
vn -0.0494 0.7948 -0.6048
vn -0.0000 0.9742 -0.2255
vn -0.0000 0.9462 0.3235
vn 0.3241 0.4108 -0.8522
vn -0.6069 0.7692 0.1999
vn -0.4676 0.8839 -0.0000
vn -0.6692 0.6742 -0.3125
vn -0.6898 0.6949 -0.2031
vn -0.8853 0.4649 -0.0000
vn -0.9031 0.4121 0.1205
vn -0.8809 0.4638 0.0945
vn -0.8521 0.5025 0.1467
vn -0.7598 0.4382 0.4803
vn -0.6722 0.7403 0.0055
vn -0.6447 0.5138 -0.5661
vn -0.7769 0.6042 -0.1774
vn -0.6196 0.4819 0.6196
vn -0.3665 0.8494 0.3798
vn 0.2711 0.8787 -0.3929
vn 0.2753 0.8609 -0.4278
vn 0.1450 0.9894 -0.0000
vn -0.5405 0.8414 -0.0000
vn 0.1236 0.8436 0.5225
vn -0.3958 0.8826 0.2537
vn -0.7501 0.6614 -0.0000
vn -0.7328 0.6461 0.2134
vn -0.6152 0.7377 0.2779
vn 0.0648 0.9930 -0.0986
vn -0.2155 0.7793 -0.5884
vn -0.3969 0.8878 -0.2331
vn -0.3798 0.8494 0.3665
vn -0.0156 0.9998 0.0156
vn -0.0000 0.9556 -0.2948
vn 0.3735 0.8433 -0.3865
vn 0.5773 0.7769 -0.2514
vn 0.6883 0.5695 0.4493
vn 0.7704 0.6375 -0.0000
vn 0.6883 0.5695 -0.4493
vn 0.3527 0.5949 0.7223
vn -0.0000 0.7167 0.6974
vn -0.0000 0.9995 0.0302
vn -0.1893 0.9481 -0.2553
vn -0.3817 0.8717 -0.3073
vn -0.2273 0.9000 -0.3719
vn -0.0000 0.9958 -0.0917
vn -0.0000 0.7995 -0.6007
vn -0.0000 0.7967 -0.6044
vn 0.2670 0.9637 -0.0000
vn -0.0000 0.6928 0.7211
vn -0.0000 0.5382 0.8428
vn -0.0592 0.9919 0.1120
vn -0.1056 0.9831 -0.1498
vn -0.1565 0.9813 -0.1122
vn -0.0092 0.8580 -0.5135
vn -0.0000 0.9454 -0.3258
vn -0.0000 0.9637 -0.2670
vn 0.3467 0.8716 -0.3467
vn 0.3467 0.8716 0.3467
vn -0.0000 0.9637 0.2670
vn -0.0000 0.9982 0.0596
vn -0.1605 0.9714 0.1752
vn 0.1334 0.9767 -0.1681
vn 0.0359 0.9974 -0.0620
vn 0.0454 0.8002 -0.5980
vn 0.1005 0.9375 -0.3332
vn -0.0000 0.8289 -0.5594
vn -0.0000 0.8264 -0.5630
vn -0.0000 0.8264 0.5630
vn -0.0000 0.8289 0.5594
vn 0.1592 0.9632 0.2166
vn 0.1619 0.9796 -0.1190
vn -0.0360 0.9968 -0.0713
vn 0.1531 0.9848 -0.0816
vn -0.3543 0.7310 -0.5832
vn -0.5368 0.8188 -0.2032
vn -0.5483 0.8363 -0.0000
vn -0.3131 0.7872 -0.5312
vn -0.4906 0.7201 -0.4906
vn -0.4906 0.7201 0.4906
vn -0.3131 0.7872 0.5312
vn 0.1507 0.6849 0.7129
vn 0.3094 0.5118 0.8015
vn 0.1143 0.9934 -0.0000
vn 0.1141 0.9917 0.0592
vn -0.5291 0.8458 0.0676
vn -0.6161 0.7617 -0.2005
vn -0.6363 0.7713 -0.0124
vn -0.7154 0.6818 -0.1530
vn -0.7469 0.6630 -0.0512
vn -0.0000 0.8363 -0.5483
vn -0.2580 0.9311 -0.2580
vn -0.5312 0.7872 -0.3131
vn -0.5312 0.7872 0.3131
vn -0.2580 0.9311 0.2580
vn 0.0481 0.7721 0.6337
vn 0.3032 0.6156 0.7274
vn 0.2812 0.8620 0.4218
vn -0.0000 0.7807 0.6249
vn -0.0000 0.6639 -0.7479
vn -0.0000 0.7967 0.6044
vn -0.0000 0.7995 0.6007
vn 0.4808 0.7333 0.4808
vn 0.5989 0.5316 0.5989
vn 0.7479 0.6639 -0.0000
vn 0.8721 0.4893 -0.0000
vn 0.7637 0.4285 -0.4828
vn 0.4808 0.7333 -0.4808
vn 0.5483 0.8363 -0.0000
vn 0.3038 0.9527 -0.0000
vn -0.3338 0.7536 -0.5663
vn -0.5172 0.6819 -0.5172
vn 0.2907 0.9116 -0.2907
vn -0.2828 0.9165 -0.2828
vn -0.0000 0.9143 -0.4049
vn -0.0000 0.9527 -0.3038
vn -0.6044 0.7967 -0.0000
vn -0.5172 0.6819 0.5172
vn -0.3338 0.7536 0.5663
vn -0.3038 0.9527 -0.0000
vn -0.5663 0.7536 -0.3338
vn -0.6007 0.7995 -0.0000
vn -0.5663 0.7536 0.3338
vn -0.2828 0.9165 0.2828
vn -0.2907 0.9116 -0.2907
vn 0.2907 0.9116 0.2907
vn 0.0156 0.9998 -0.0156
vn 0.3798 0.8494 -0.3665
vn 0.3798 0.8494 0.3665
vn 0.0156 0.9998 0.0156
vn 0.4119 0.9112 -0.0045
vn 0.4705 0.8794 -0.0729
vn 0.4705 0.8794 0.0729
vn 0.3962 0.9182 0.0046
vn 0.6196 0.4819 -0.6196
vn 0.6196 0.4819 0.6196
vn 0.3665 0.8494 0.3798
vn 0.3665 0.8494 -0.3798
vn 0.7766 0.4664 -0.4236
vn 0.8810 0.3197 -0.3487
vn 0.8975 0.3257 0.2975
vn 0.9212 0.3885 0.0234
vn 0.8981 0.3887 0.2056
vn 0.8715 0.4905 -0.0000
vn 0.8910 0.4060 -0.2033
vn 0.9100 0.4146 0.0021
vn 0.8830 0.4033 0.2403
vn 0.8470 0.5052 0.1656
vn -0.0002 0.9977 0.0678
vn -0.0000 0.8053 0.5929
vn 0.4358 0.8704 -0.2290
vn -0.1415 0.9790 0.1465
vn -0.0165 0.9050 0.4251
vn -0.1817 0.8733 0.4520
vn -0.1063 0.9938 -0.0329
vn -0.1058 0.9887 -0.1060
vn -0.3683 0.8536 -0.3683
vn -0.5251 0.4084 -0.7466
vn -0.3250 0.8881 -0.3250
vn -0.2297 0.9667 -0.1129
vn -0.2078 0.8746 -0.4379
vn -0.4725 0.8650 0.1688
vn -0.5916 0.5929 0.5463
vn -0.6241 0.7323 0.2724
vn -0.5613 0.6586 -0.5012
vn -0.1202 0.9672 -0.2239
vn -0.0148 0.9461 0.3234
vn -0.3241 0.4108 -0.8522
vn -0.4647 0.8570 0.2227
vn -0.7273 0.6226 -0.2886
vn -0.6191 0.7538 -0.2203
vn -0.2701 0.9241 0.2701
vn -0.4371 0.8813 0.1795
vn -0.4945 0.8344 0.2435
vn -0.4595 0.5986 0.6562
vn -0.3738 0.9275 0.0069
vn -0.2614 0.6487 -0.7147
vn -0.0595 0.9578 -0.2812
vn 0.5844 0.7408 -0.3312
vn -0.5770 0.7314 -0.3634
vn -0.8508 0.4468 0.2767
vn -0.9034 0.4122 0.1185
vn -0.8849 0.4659 -0.0000
vn -0.8614 0.5080 -0.0000
vn -0.8547 0.4929 0.1628
vn -0.6886 0.6786 0.2557
vn -0.7105 0.7002 -0.0695
vn -0.5868 0.6462 -0.4880
vn -0.7718 0.6151 -0.1615
vn -0.3683 0.8536 0.3683
vn 0.2828 0.9165 -0.2828
vn 0.2792 0.8729 -0.4001
vn 0.1381 0.9423 -0.3049
vn -0.4503 0.7010 0.5530
vn -0.4503 0.7010 -0.5530
vn -0.2742 0.6113 0.7424
vn -0.6307 0.5561 0.5412
vn -0.6403 0.7678 0.0232
vn -0.1786 0.9501 -0.2558
vn -0.1745 0.9286 -0.3274
vn 0.0602 0.9225 -0.3812
vn -0.2655 0.9600 -0.0884
vn -0.0156 0.9999 -0.0000
vn 0.3338 0.7536 -0.5663
vn 0.5094 0.6856 -0.5201
vn 0.3868 0.9221 -0.0000
vn 0.2791 0.6653 0.6925
vn 0.3040 0.5127 0.8029
vn -0.0819 0.9903 0.1118
vn -0.0815 0.9853 -0.1501
vn -0.1945 0.9745 -0.1114
vn -0.3517 0.8032 -0.4807
vn -0.2323 0.9196 -0.3169
vn 0.2580 0.9311 -0.2580
vn 0.5312 0.7872 -0.3131
vn 0.5312 0.7872 0.3131
vn 0.2580 0.9311 0.2580
vn -0.0595 0.9965 0.0595
vn -0.1241 0.9765 0.1761
vn -0.1243 0.9779 -0.1683
vn -0.1066 0.9924 -0.0617
vn -0.1268 0.7946 -0.5938
vn -0.0101 0.9422 -0.3349
vn 0.3131 0.7872 -0.5312
vn 0.4906 0.7201 -0.4906
vn 0.4906 0.7201 0.4906
vn 0.3131 0.7872 0.5312
vn -0.1592 0.9632 0.2166
vn 0.1343 0.9837 -0.1195
vn 0.0359 0.9968 -0.0713
vn 0.0564 0.9950 -0.0824
vn 0.0835 0.7790 -0.6215
vn -0.0000 0.9705 -0.2409
vn -0.0360 0.9962 0.0796
vn 0.1487 0.9563 -0.2517
vn 0.0884 0.9960 -0.0160
vn 0.0863 0.9721 -0.2181
vn -0.4351 0.8977 -0.0694
vn -0.4808 0.7333 -0.4808
vn -0.3467 0.8716 -0.3467
vn -0.3467 0.8716 0.3467
vn -0.0000 0.7730 0.6345
vn 0.1408 0.6396 0.7557
vn 0.4771 0.7894 0.3863
vn -0.4389 0.7015 0.5615
vn -0.4790 0.8778 -0.0000
vn -0.6289 0.7775 -0.0000
vn -0.6364 0.7714 -0.0000
vn -0.7239 0.6899 -0.0000
vn -0.5989 0.5316 -0.5989
vn -0.2670 0.9637 -0.0000
vn 0.0497 0.7985 0.6000
vn 0.3808 0.7733 0.5070
vn 0.2116 0.6488 0.7309
vn 0.8304 0.4660 -0.3055
vn -0.3753 0.8475 -0.3753
vn -0.2395 0.7762 -0.5832
vn -0.3753 0.8475 0.3753
vn -0.0000 0.9556 0.2948
vn -0.2948 0.9556 -0.0000
vt 2.761904 2.761905
vt 3.000000 3.000000
vt 2.761905 3.000000
vt -1.761905 2.761905
vt -2.000000 3.000000
vt -2.000000 2.761905
vt -1.523809 2.761905
vt -1.761905 3.000000
vt -1.285714 2.761905
vt -1.523809 3.000000
vt -1.047619 2.761905
vt -1.285714 3.000000
vt -0.809524 2.761905
vt -1.047619 3.000000
vt -0.571429 2.761905
vt -0.809524 3.000000
vt -0.333333 2.761905
vt -0.571429 3.000000
vt -0.095238 2.761905
vt -0.333333 3.000000
vt 0.142857 2.761905
vt -0.095238 3.000000
vt 0.380952 2.761905
vt 0.142857 3.000000
vt 0.619048 2.761905
vt 0.380952 3.000000
vt 0.857143 2.761905
vt 0.619048 3.000000
vt 1.095238 2.761905
vt 0.857143 3.000000
vt 1.333333 2.761905
vt 1.095238 3.000000
vt 1.571429 2.761905
vt 1.333333 3.000000
vt 1.809524 3.000000
vt 1.571429 3.000000
vt 1.809524 2.761905
vt 2.047619 3.000000
vt 2.285714 2.761905
vt 2.047619 2.761905
vt 2.523809 2.761905
vt 2.285714 3.000000
vt 2.523809 3.000000
vt -2.000000 -2.000000
vt -1.761905 -1.761905
vt -2.000000 -1.761905
vt -1.761905 -1.523809
vt -2.000000 -1.523809
vt -2.000000 -1.285714
vt -1.761905 -1.285714
vt -2.000000 -1.047619
vt -1.761905 -1.047619
vt -2.000000 -0.809524
vt -1.761905 -0.571429
vt -2.000000 -0.571429
vt -1.761905 -0.333333
vt -2.000000 -0.333333
vt -1.761905 -0.095238
vt -2.000000 -0.095238
vt -1.761905 0.142857
vt -2.000000 0.142857
vt -1.761905 0.380952
vt -2.000000 0.380952
vt -2.000000 0.619048
vt -1.761905 0.857143
vt -2.000000 0.857143
vt -1.761905 1.095238
vt -2.000000 1.095238
vt -1.761905 1.333333
vt -2.000000 1.333333
vt -2.000000 1.571429
vt -1.761905 1.571429
vt -2.000000 1.809524
vt -1.761905 2.047619
vt -2.000000 2.047619
vt -1.761905 2.285714
vt -2.000000 2.285714
vt -1.761905 2.523809
vt -2.000000 2.523809
vt -1.523809 -2.000000
vt -1.761905 -2.000000
vt -1.523809 -1.761905
vt -1.523809 -1.523809
vt -1.523809 -1.285714
vt -1.523809 -1.047619
vt -1.761905 -0.809524
vt -1.523809 -0.571429
vt -1.523809 -0.333333
vt -1.523809 -0.095238
vt -1.523809 0.142857
vt -1.523809 0.380952
vt -1.761905 0.619048
vt -1.523809 0.619048
vt -1.523809 0.857143
vt -1.523809 1.333333
vt -1.523809 1.571429
vt -1.761905 1.809524
vt -1.523809 1.809524
vt -1.523809 2.285714
vt -1.523809 2.523809
vt -1.285714 -2.000000
vt -1.285714 -1.761905
vt -1.285714 -1.523809
vt -1.285714 -1.285714
vt -1.285714 -1.047619
vt -1.523809 -0.809524
vt -1.285714 -0.809524
vt -1.285714 -0.571429
vt -1.285714 -0.095238
vt -1.285714 0.142857
vt -1.285714 0.380952
vt -1.285714 0.619048
vt -1.285714 1.095238
vt -1.523809 1.095238
vt -1.285714 1.333333
vt -1.285714 1.571429
vt -1.285714 1.809524
vt -1.523809 2.047619
vt -1.285714 2.047619
vt -1.285714 2.285714
vt -1.285714 2.523809
vt -1.047619 -2.000000
vt -1.047619 -1.761905
vt -1.047619 -1.523809
vt -1.047619 -1.285714
vt -1.047619 -1.047619
vt -1.047619 -0.809524
vt -1.047619 -0.333333
vt -1.285714 -0.333333
vt -1.047619 -0.095238
vt -1.047619 0.380952
vt -1.047619 0.619048
vt -1.285714 0.857143
vt -1.047619 0.857143
vt -1.047619 1.095238
vt -1.047619 1.333333
vt -1.047619 1.571429
vt -1.047619 2.047619
vt -1.047619 2.285714
vt -1.047619 2.523809
vt -0.809524 -1.761905
vt -0.809524 -1.523809
vt -0.809524 -1.285714
vt -0.809524 -1.047619
vt -0.809524 -0.809524
vt -0.809524 -0.571429
vt -1.047619 -0.571429
vt -0.809524 -0.333333
vt -0.809524 0.142857
vt -1.047619 0.142857
vt -0.809524 0.380952
vt -0.809524 0.857143
vt -0.809524 1.095238
vt -0.809524 1.333333
vt -0.809524 1.809524
vt -1.047619 1.809524
vt -0.809524 2.047619
vt -0.809524 2.285714
vt -0.571429 -2.000000
vt -0.809524 -2.000000
vt -0.571429 -1.761905
vt -0.571429 -1.285714
vt -0.571429 -1.047619
vt -0.571429 -0.809524
vt -0.571429 -0.571429
vt -0.571429 -0.095238
vt -0.809524 -0.095238
vt -0.571429 0.142857
vt -0.571429 0.380952
vt -0.809524 0.619048
vt -0.571429 0.619048
vt -0.571429 0.857143
vt -0.571429 1.095238
vt -0.571429 1.333333
vt -0.809524 1.571429
vt -0.571429 1.809524
vt -0.571429 2.047619
vt -0.571429 2.285714
vt -0.809524 2.523809
vt -0.571429 2.523809
vt -0.333333 -2.000000
vt -0.333333 -1.761905
vt -0.571429 -1.523809
vt -0.333333 -1.523809
vt -0.333333 -1.285714
vt -0.333334 -1.047619
vt -0.333334 -0.809524
vt -0.333334 -0.571429
vt -0.571429 -0.333333
vt -0.333334 -0.095238
vt -0.333334 0.142857
vt -0.333333 0.380952
vt -0.333333 0.619048
vt -0.333333 0.857143
vt -0.333333 1.095238
vt -0.333333 1.571429
vt -0.571429 1.571429
vt -0.333333 1.809524
vt -0.333333 2.047619
vt -0.333333 2.285714
vt -0.333333 2.523809
vt -0.095238 -2.000000
vt -0.095238 -1.761905
vt -0.095238 -1.523809
vt -0.095238 -1.285714
vt -0.095238 -1.047619
vt -0.095238 -0.809524
vt -0.095238 -0.571429
vt -0.333334 -0.333333
vt -0.095238 -0.095238
vt -0.095238 0.142857
vt -0.095238 0.380952
vt -0.095238 0.619048
vt -0.095238 0.857143
vt -0.095238 1.095238
vt -0.333333 1.333333
vt -0.095238 1.571429
vt -0.095238 1.809524
vt -0.095238 2.047619
vt -0.095238 2.285714
vt -0.095238 2.523809
vt 0.142857 -2.000000
vt 0.142857 -1.761905
vt 0.142857 -1.523809
vt 0.142857 -1.285714
vt 0.142857 -1.047619
vt 0.142857 -0.571429
vt -0.095238 -0.333333
vt 0.142857 -0.333333
vt 0.142857 0.142857
vt 0.142857 0.380952
vt 0.142857 0.619048
vt 0.142857 0.857143
vt 0.142857 1.333333
vt -0.095238 1.333333
vt 0.142857 1.571429
vt 0.142857 1.809524
vt 0.142857 2.047619
vt 0.142857 2.285714
vt 0.142857 2.523809
vt 0.380952 -2.000000
vt 0.380953 -1.761905
vt 0.380953 -1.523809
vt 0.380953 -1.285714
vt 0.380952 -1.047619
vt 0.142857 -0.809524
vt 0.380952 -0.809524
vt 0.380952 -0.333333
vt 0.380952 -0.095238
vt 0.142857 -0.095238
vt 0.380952 0.380952
vt 0.380952 0.619048
vt 0.380952 0.857143
vt 0.142857 1.095238
vt 0.380952 1.333333
vt 0.380952 1.571429
vt 0.380952 1.809524
vt 0.380952 2.047619
vt 0.380952 2.285714
vt 0.380952 2.523809
vt 0.619048 -2.000000
vt 0.619048 -1.761905
vt 0.619048 -1.523809
vt 0.619048 -1.285714
vt 0.619048 -1.047619
vt 0.619048 -0.809524
vt 0.380952 -0.571429
vt 0.619048 -0.333333
vt 0.619048 -0.095238
vt 0.380952 0.142857
vt 0.619048 0.142857
vt 0.619048 0.380952
vt 0.619048 0.619048
vt 0.619048 0.857143
vt 0.380952 1.095238
vt 0.619048 1.095238
vt 0.619048 1.333333
vt 0.619048 1.571429
vt 0.619048 1.809524
vt 0.619048 2.047619
vt 0.619048 2.285714
vt 0.619048 2.523809
vt 0.857143 -2.000000
vt 0.857143 -1.761905
vt 0.857143 -1.523809
vt 0.857143 -1.285714
vt 0.857143 -1.047619
vt 0.857143 -0.809524
vt 0.619048 -0.571429
vt 0.857143 -0.333333
vt 0.857143 -0.095238
vt 0.857143 0.142857
vt 0.857143 0.380952
vt 0.857143 0.857143
vt 0.857143 1.095238
vt 0.857143 1.333333
vt 0.857143 1.809524
vt 0.857143 2.047619
vt 0.857143 2.523809
vt 1.095238 -2.000000
vt 1.095238 -1.761905
vt 1.095238 -1.523809
vt 1.095238 -1.285714
vt 1.095238 -0.809524
vt 1.095238 -0.571429
vt 0.857143 -0.571429
vt 1.095238 -0.333333
vt 1.095238 0.142857
vt 1.095238 0.380952
vt 1.095238 0.619048
vt 0.857143 0.619048
vt 1.095238 0.857143
vt 1.095238 1.333333
vt 1.095238 1.571429
vt 0.857143 1.571429
vt 1.095238 1.809524
vt 1.095238 2.047619
vt 1.095238 2.285714
vt 0.857143 2.285714
vt 1.095238 2.523809
vt 1.333333 -2.000000
vt 1.333333 -1.761905
vt 1.333333 -1.523809
vt 1.333333 -1.285714
vt 1.095238 -1.047619
vt 1.333333 -0.809524
vt 1.333333 -0.571429
vt 1.333333 -0.333333
vt 1.095238 -0.095238
vt 1.333333 0.142857
vt 1.333333 0.380952
vt 1.333333 0.619048
vt 1.333333 0.857143
vt 1.333333 1.095238
vt 1.095238 1.095238
vt 1.333333 1.333333
vt 1.333333 1.571429
vt 1.333333 1.809524
vt 1.333333 2.047619
vt 1.333333 2.285714
vt 1.333333 2.523809
vt 1.571429 -2.000000
vt 1.571429 -1.761905
vt 1.571429 -1.523809
vt 1.571429 -1.285714
vt 1.333333 -1.047619
vt 1.571429 -1.047619
vt 1.571429 -0.809524
vt 1.571429 -0.571429
vt 1.571429 -0.333333
vt 1.333333 -0.095238
vt 1.571428 0.142857
vt 1.571428 0.619048
vt 1.571428 0.857143
vt 1.571428 1.095238
vt 1.571428 1.333333
vt 1.571428 1.571429
vt 1.571428 1.809524
vt 1.571428 2.047619
vt 1.571429 2.285714
vt 1.571429 2.523809
vt 1.809524 -2.000000
vt 1.809524 -1.761905
vt 1.809524 -1.523809
vt 1.809524 -1.285714
vt 1.809524 -1.047619
vt 1.809524 -0.809524
vt 1.809524 -0.571429
vt 1.809524 -0.333333
vt 1.571428 -0.095238
vt 1.809524 -0.095238
vt 1.809524 0.142857
vt 1.571428 0.380952
vt 1.809524 0.619048
vt 1.809524 0.857143
vt 1.809524 1.095238
vt 1.809524 1.333333
vt 1.809524 1.571429
vt 1.809524 1.809524
vt 1.809524 2.047619
vt 1.809524 2.285714
vt 1.809524 2.523809
vt 2.047619 -1.761905
vt 2.047619 -1.523809
vt 2.047619 -1.285714
vt 2.047619 -1.047619
vt 2.047619 -0.809524
vt 2.047619 -0.571429
vt 2.047619 -0.333333
vt 2.047619 -0.095238
vt 2.047619 0.380952
vt 1.809524 0.380952
vt 2.047619 0.619048
vt 2.047619 0.857143
vt 2.047619 1.333333
vt 2.047619 1.571429
vt 2.047619 1.809524
vt 2.047619 2.047619
vt 2.047619 2.285714
vt 2.047619 2.523809
vt 2.285714 -2.000000
vt 2.047619 -2.000000
vt 2.285714 -1.761905
vt 2.285714 -1.285714
vt 2.285714 -1.047619
vt 2.285714 -0.571429
vt 2.285714 -0.333333
vt 2.285714 -0.095238
vt 2.047619 0.142857
vt 2.285714 0.142857
vt 2.285715 0.619048
vt 2.285714 0.857143
vt 2.047619 1.095238
vt 2.285714 1.333333
vt 2.285714 1.571429
vt 2.285714 1.809524
vt 2.285714 2.047619
vt 2.285714 2.285714
vt 2.285714 2.523809
vt 2.523809 -2.000000
vt 2.523809 -1.761905
vt 2.285714 -1.523809
vt 2.523809 -1.523809
vt 2.523809 -1.285714
vt 2.523809 -1.047619
vt 2.285714 -0.809524
vt 2.523809 -0.809524
vt 2.523809 -0.571429
vt 2.523809 -0.333333
vt 2.523809 -0.095238
vt 2.523809 0.142857
vt 2.285715 0.380952
vt 2.523809 0.619048
vt 2.523809 0.857143
vt 2.285714 1.095238
vt 2.523809 1.095238
vt 2.523809 1.333333
vt 2.523809 1.571429
vt 2.523809 1.809524
vt 2.523809 2.047619
vt 2.523809 2.285714
vt 2.523809 2.523809
vt 2.761905 -2.000000
vt 2.761905 -1.761905
vt 2.761905 -1.523809
vt 2.761905 -1.047619
vt 2.761905 -0.809524
vt 2.761905 -0.571429
vt 2.761905 -0.333333
vt 2.761904 -0.095238
vt 2.761904 0.142857
vt 2.523809 0.380952
vt 2.761904 0.619048
vt 2.761904 0.857143
vt 2.761904 1.333333
vt 2.761904 1.571429
vt 2.761904 1.809524
vt 2.761904 2.047619
vt 2.761904 2.285714
vt 2.761904 2.523809
vt 3.000000 -2.000000
vt 3.000000 -1.523809
vt 3.000000 -1.285714
vt 2.761905 -1.285714
vt 3.000000 -1.047619
vt 3.000000 -0.809524
vt 3.000000 -0.571429
vt 3.000000 -0.333333
vt 3.000000 -0.095238
vt 3.000000 0.142857
vt 2.761904 0.380952
vt 3.000000 0.619048
vt 3.000000 1.095238
vt 2.761904 1.095238
vt 3.000000 1.333333
vt 3.000000 1.809524
vt 3.000000 2.047619
vt 3.000000 2.285714
vt 3.000000 2.761905
vt 3.000000 -1.761905
vt 3.000000 0.380952
vt 3.000000 0.857143
vt 3.000000 1.571429
vt 3.000000 2.523809
s 0
f 484/1/1 4/2/1 65/3/1
f 104/4/1 3/5/1 5/6/1
f 124/7/1 84/8/1 104/4/1
f 144/9/1 83/10/1 124/7/1
f 164/11/1 82/12/1 144/9/1
f 184/13/1 81/14/1 164/11/1
f 204/15/1 80/16/1 184/13/1
f 224/17/1 79/18/1 204/15/1
f 244/19/1 78/20/1 224/17/1
f 264/21/1 77/22/1 244/19/1
f 284/23/1 76/24/1 264/21/1
f 304/25/1 75/26/1 284/23/1
f 324/27/1 74/28/1 304/25/1
f 344/29/1 73/30/1 324/27/1
f 364/31/1 72/32/1 344/29/1
f 384/33/1 71/34/1 364/31/1
f 384/33/1 69/35/1 70/36/1
f 404/37/2 68/38/2 69/35/2
f 444/39/2 68/38/2 424/40/2
f 464/41/2 67/42/2 444/39/2
f 484/1/3 66/43/3 464/41/3
f 1/44/1 85/45/1 24/46/1
f 24/46/1 86/47/1 23/48/1
f 86/47/1 22/49/1 23/48/1
f 87/50/1 21/51/1 22/49/1
f 88/52/4 20/53/4 21/51/4
f 20/53/1 90/54/1 19/55/1
f 19/55/1 91/56/1 18/57/1
f 18/57/5 92/58/5 17/59/5
f 17/59/1 93/60/1 16/61/1
f 16/61/1 94/62/1 15/63/1
f 94/62/1 14/64/1 15/63/1
f 14/64/1 96/65/1 13/66/1
f 13/66/1 97/67/1 12/68/1
f 12/68/1 98/69/1 11/70/1
f 98/69/1 10/71/1 11/70/1
f 99/72/6 9/73/6 10/71/6
f 9/73/7 101/74/7 8/75/7
f 8/75/6 102/76/6 7/77/6
f 7/77/1 103/78/1 6/79/1
f 6/79/1 104/4/1 5/6/1
f 26/80/1 85/45/1 25/81/1
f 105/82/1 86/47/1 85/45/1
f 106/83/1 87/50/1 86/47/1
f 107/84/6 88/52/6 87/50/6
f 108/85/8 89/86/8 88/52/8
f 89/86/7 110/87/7 90/54/7
f 90/54/7 111/88/7 91/56/7
f 91/56/9 112/89/9 92/58/9
f 92/58/7 113/90/7 93/60/7
f 93/60/7 114/91/7 94/62/7
f 114/91/7 95/92/7 94/62/7
f 115/93/10 96/65/10 95/92/10
f 116/94/11 97/67/11 96/65/11
f 97/67/10 118/95/10 98/69/10
f 118/95/12 99/72/12 98/69/12
f 119/96/13 100/97/13 99/72/13
f 120/98/14 101/74/14 100/97/14
f 101/74/15 122/99/15 102/76/15
f 102/76/16 123/100/16 103/78/16
f 123/100/1 104/4/1 103/78/1
f 27/101/1 105/82/1 26/80/1
f 125/102/1 106/83/1 105/82/1
f 126/103/17 107/84/17 106/83/17
f 127/104/13 108/85/13 107/84/13
f 128/105/18 109/106/18 108/85/18
f 129/107/19 110/87/19 109/106/19
f 130/108/20 111/88/20 110/87/20
f 111/88/21 132/109/21 112/89/21
f 112/89/22 133/110/22 113/90/22
f 113/90/23 134/111/23 114/91/23
f 134/111/24 115/93/24 114/91/24
f 135/112/25 116/94/25 115/93/25
f 116/94/26 137/113/26 117/114/26
f 117/114/27 138/115/27 118/95/27
f 118/95/28 139/116/28 119/96/28
f 139/116/29 120/98/29 119/96/29
f 140/117/30 121/118/30 120/98/30
f 141/119/31 122/99/31 121/118/31
f 142/120/32 123/100/32 122/99/32
f 143/121/1 124/7/1 123/100/1
f 28/122/1 125/102/1 27/101/1
f 145/123/1 126/103/1 125/102/1
f 146/124/33 127/104/33 126/103/33
f 147/125/34 128/105/34 127/104/34
f 148/126/35 129/107/35 128/105/35
f 149/127/36 130/108/36 129/107/36
f 130/108/1 151/128/1 131/129/1
f 131/129/37 152/130/37 132/109/37
f 152/130/38 133/110/38 132/109/38
f 133/110/39 154/131/39 134/111/39
f 154/131/40 135/112/40 134/111/40
f 155/132/41 136/133/41 135/112/41
f 156/134/42 137/113/42 136/133/42
f 157/135/43 138/115/43 137/113/43
f 158/136/44 139/116/44 138/115/44
f 159/137/45 140/117/45 139/116/45
f 140/117/46 161/138/46 141/119/46
f 161/138/31 142/120/31 141/119/31
f 162/139/32 143/121/32 142/120/32
f 163/140/1 144/9/1 143/121/1
f 28/122/1 165/141/1 145/123/1
f 145/123/1 166/142/1 146/124/1
f 146/124/47 167/143/47 147/125/47
f 147/125/48 168/144/48 148/126/48
f 148/126/49 169/145/49 149/127/49
f 149/127/50 170/146/50 150/147/50
f 170/146/51 151/128/51 150/147/51
f 171/148/52 152/130/52 151/128/52
f 152/130/53 173/149/53 153/150/53
f 153/150/5 174/151/5 154/131/5
f 174/151/1 155/132/1 154/131/1
f 155/132/54 176/152/54 156/134/54
f 176/152/55 157/135/55 156/134/55
f 177/153/56 158/136/56 157/135/56
f 178/154/57 159/137/57 158/136/57
f 159/137/58 180/155/58 160/156/58
f 160/156/59 181/157/59 161/138/59
f 181/157/31 162/139/31 161/138/31
f 182/158/32 163/140/32 162/139/32
f 163/140/1 184/13/1 164/11/1
f 30/159/1 165/141/1 29/160/1
f 185/161/1 166/142/1 165/141/1
f 166/142/60 187/162/60 167/143/60
f 167/143/61 188/163/61 168/144/61
f 168/144/62 189/164/62 169/145/62
f 169/145/63 190/165/63 170/146/63
f 190/165/64 171/148/64 170/146/64
f 171/148/65 192/166/65 172/167/65
f 172/167/66 193/168/66 173/149/66
f 193/168/67 174/151/67 173/149/67
f 194/169/68 175/170/68 174/151/68
f 195/171/69 176/152/69 175/170/69
f 196/172/70 177/153/70 176/152/70
f 197/173/71 178/154/71 177/153/71
f 198/174/72 179/175/72 178/154/72
f 179/175/73 200/176/73 180/155/73
f 180/155/74 201/177/74 181/157/74
f 201/177/31 182/158/31 181/157/31
f 202/178/32 183/179/32 182/158/32
f 203/180/1 184/13/1 183/179/1
f 31/181/1 185/161/1 30/159/1
f 205/182/1 186/183/1 185/161/1
f 206/184/1 187/162/1 186/183/1
f 207/185/75 188/163/75 187/162/75
f 208/186/76 189/164/76 188/163/76
f 209/187/77 190/165/77 189/164/77
f 210/188/78 191/189/78 190/165/78
f 191/189/79 212/190/79 192/166/79
f 212/190/80 193/168/80 192/166/80
f 213/191/81 194/169/81 193/168/81
f 214/192/82 195/171/82 194/169/82
f 215/193/83 196/172/83 195/171/83
f 216/194/84 197/173/84 196/172/84
f 217/195/85 198/174/85 197/173/85
f 198/174/86 219/196/86 199/197/86
f 199/197/87 220/198/87 200/176/87
f 200/176/88 221/199/88 201/177/88
f 221/199/89 202/178/89 201/177/89
f 222/200/90 203/180/90 202/178/90
f 223/201/1 204/15/1 203/180/1
f 32/202/1 205/182/1 31/181/1
f 225/203/1 206/184/1 205/182/1
f 226/204/1 207/185/1 206/184/1
f 227/205/91 208/186/91 207/185/91
f 228/206/92 209/187/92 208/186/92
f 229/207/93 210/188/93 209/187/93
f 230/208/94 211/209/94 210/188/94
f 211/209/93 232/210/93 212/190/93
f 232/210/95 213/191/95 212/190/95
f 233/211/96 214/192/96 213/191/96
f 234/212/97 215/193/97 214/192/97
f 235/213/97 216/194/97 215/193/97
f 236/214/98 217/195/98 216/194/98
f 237/215/99 218/216/99 217/195/99
f 218/216/100 239/217/100 219/196/100
f 219/196/101 240/218/101 220/198/101
f 220/198/102 241/219/102 221/199/102
f 241/219/103 222/200/103 221/199/103
f 242/220/104 223/201/104 222/200/104
f 243/221/1 224/17/1 223/201/1
f 33/222/1 225/203/1 32/202/1
f 245/223/1 226/204/1 225/203/1
f 246/224/105 227/205/105 226/204/105
f 247/225/106 228/206/106 227/205/106
f 248/226/107 229/207/107 228/206/107
f 229/207/108 250/227/108 230/208/108
f 250/227/109 231/228/109 230/208/109
f 251/229/110 232/210/110 231/228/110
f 232/210/111 253/230/111 233/211/111
f 233/211/112 254/231/112 234/212/112
f 234/212/1 255/232/1 235/213/1
f 255/232/1 236/214/1 235/213/1
f 256/233/113 237/215/113 236/214/113
f 237/215/114 258/234/114 238/235/114
f 238/235/115 259/236/115 239/217/115
f 239/217/116 260/237/116 240/218/116
f 240/218/117 261/238/117 241/219/117
f 241/219/1 262/239/1 242/220/1
f 242/220/1 263/240/1 243/221/1
f 243/221/1 264/21/1 244/19/1
f 34/241/1 245/223/1 33/222/1
f 265/242/1 246/224/1 245/223/1
f 266/243/118 247/225/118 246/224/118
f 267/244/119 248/226/119 247/225/119
f 268/245/1 249/246/1 248/226/1
f 269/247/120 250/227/120 249/246/120
f 250/227/120 271/248/120 251/229/120
f 251/229/1 272/249/1 252/250/1
f 272/249/121 253/230/121 252/250/121
f 253/230/122 274/251/122 254/231/122
f 274/251/1 255/232/1 254/231/1
f 275/252/1 256/233/1 255/232/1
f 276/253/123 257/254/123 256/233/123
f 257/254/124 278/255/124 258/234/124
f 258/234/125 279/256/125 259/236/125
f 259/236/126 280/257/126 260/237/126
f 260/237/127 281/258/127 261/238/127
f 281/258/1 262/239/1 261/238/1
f 282/259/1 263/240/1 262/239/1
f 283/260/1 264/21/1 263/240/1
f 35/261/1 265/242/1 34/241/1
f 285/262/1 266/243/1 265/242/1
f 286/263/118 267/244/118 266/243/118
f 287/264/119 268/245/119 267/244/119
f 288/265/128 269/247/128 268/245/128
f 289/266/129 270/267/129 269/247/129
f 270/267/130 291/268/130 271/248/130
f 271/248/131 292/269/131 272/249/131
f 292/269/121 273/270/121 272/249/121
f 293/271/122 274/251/122 273/270/122
f 294/272/1 275/252/1 274/251/1
f 295/273/132 276/253/132 275/252/132
f 296/274/133 277/275/133 276/253/133
f 297/276/134 278/255/134 277/275/134
f 298/277/135 279/256/135 278/255/135
f 299/278/136 280/257/136 279/256/136
f 300/279/137 281/258/137 280/257/137
f 301/280/1 282/259/1 281/258/1
f 302/281/1 283/260/1 282/259/1
f 303/282/1 284/23/1 283/260/1
f 36/283/1 285/262/1 35/261/1
f 305/284/1 286/263/1 285/262/1
f 306/285/118 287/264/118 286/263/118
f 307/286/119 288/265/119 287/264/119
f 308/287/138 289/266/138 288/265/138
f 309/288/139 290/289/139 289/266/139
f 290/289/140 311/290/140 291/268/140
f 291/268/141 312/291/141 292/269/141
f 312/291/121 293/271/121 292/269/121
f 313/292/122 294/272/122 293/271/122
f 314/293/1 295/273/1 294/272/1
f 295/273/142 316/294/142 296/274/142
f 316/294/143 297/276/143 296/274/143
f 317/295/144 298/277/144 297/276/144
f 318/296/145 299/278/145 298/277/145
f 299/278/146 320/297/146 300/279/146
f 300/279/147 321/298/147 301/280/147
f 321/298/148 302/281/148 301/280/148
f 302/281/1 323/299/1 303/282/1
f 323/299/1 304/25/1 303/282/1
f 37/300/1 305/284/1 36/283/1
f 325/301/1 306/285/1 305/284/1
f 326/302/118 307/286/118 306/285/118
f 327/303/119 308/287/119 307/286/119
f 308/287/149 329/304/149 309/288/149
f 309/288/150 330/305/150 310/306/150
f 330/305/151 311/290/151 310/306/151
f 331/307/152 312/291/152 311/290/152
f 312/291/153 333/308/153 313/292/153
f 313/292/154 334/309/154 314/293/154
f 314/293/155 335/310/155 315/311/155
f 335/310/156 316/294/156 315/311/156
f 336/312/157 317/295/157 316/294/157
f 317/295/158 338/313/158 318/296/158
f 318/296/159 339/314/159 319/315/159
f 319/315/160 340/316/160 320/297/160
f 320/297/161 341/317/161 321/298/161
f 321/298/1 342/318/1 322/319/1
f 322/319/162 343/320/162 323/299/162
f 323/299/1 344/29/1 324/27/1
f 38/321/1 325/301/1 37/300/1
f 345/322/1 326/302/1 325/301/1
f 346/323/118 327/303/118 326/302/118
f 347/324/119 328/325/119 327/303/119
f 328/325/163 349/326/163 329/304/163
f 329/304/164 350/327/164 330/305/164
f 350/327/165 331/307/165 330/305/165
f 351/328/166 332/329/166 331/307/166
f 332/329/167 353/330/167 333/308/167
f 333/308/168 354/331/168 334/309/168
f 334/309/169 355/332/169 335/310/169
f 335/310/170 356/333/170 336/312/170
f 336/312/1 357/334/1 337/335/1
f 357/334/1 338/313/1 337/335/1
f 358/336/1 339/314/1 338/313/1
f 359/337/1 340/316/1 339/314/1
f 360/338/1 341/317/1 340/316/1
f 361/339/171 342/318/171 341/317/171
f 362/340/162 343/320/162 342/318/162
f 363/341/1 344/29/1 343/320/1
f 39/342/1 345/322/1 38/321/1
f 365/343/1 346/323/1 345/322/1
f 366/344/118 347/324/118 346/323/118
f 367/345/119 348/346/119 347/324/119
f 368/347/1 349/326/1 348/346/1
f 369/348/1 350/327/1 349/326/1
f 370/349/1 351/328/1 350/327/1
f 371/350/1 352/351/1 351/328/1
f 352/351/172 373/352/172 353/330/172
f 373/352/173 354/331/173 353/330/173
f 354/331/174 375/353/174 355/332/174
f 355/332/175 376/354/175 356/333/175
f 376/354/176 357/334/176 356/333/176
f 377/355/176 358/336/176 357/334/176
f 378/356/176 359/337/176 358/336/176
f 379/357/176 360/338/176 359/337/176
f 380/358/177 361/339/177 360/338/177
f 381/359/178 362/340/178 361/339/178
f 382/360/179 363/341/179 362/340/179
f 383/361/1 364/31/1 363/341/1
f 40/362/1 365/343/1 39/342/1
f 385/363/1 366/344/1 365/343/1
f 386/364/118 367/345/118 366/344/118
f 387/365/119 368/347/119 367/345/119
f 388/366/1 369/348/1 368/347/1
f 389/367/1 370/349/1 369/348/1
f 390/368/1 371/350/1 370/349/1
f 391/369/1 372/370/1 371/350/1
f 392/371/172 373/352/172 372/370/172
f 393/372/173 374/373/173 373/352/173
f 374/373/1 395/374/1 375/353/1
f 375/353/174 396/375/174 376/354/174
f 396/375/180 377/355/180 376/354/180
f 397/376/180 378/356/180 377/355/180
f 398/377/180 379/357/180 378/356/180
f 399/378/179 380/358/179 379/357/179
f 400/379/1 381/359/1 380/358/1
f 401/380/181 382/360/181 381/359/181
f 402/381/181 383/361/181 382/360/181
f 403/382/181 384/33/181 383/361/181
f 40/362/1 405/383/1 385/363/1
f 385/363/1 406/384/1 386/364/1
f 386/364/182 407/385/182 387/365/182
f 387/365/183 408/386/183 388/366/183
f 388/366/1 409/387/1 389/367/1
f 389/367/1 410/388/1 390/368/1
f 410/388/1 391/369/1 390/368/1
f 411/389/1 392/371/1 391/369/1
f 412/390/172 393/372/172 392/371/172
f 393/372/173 414/391/173 394/392/173
f 394/392/1 415/393/1 395/374/1
f 395/374/1 416/394/1 396/375/1
f 416/394/1 397/376/1 396/375/1
f 397/376/1 418/395/1 398/377/1
f 418/395/1 399/378/1 398/377/1
f 419/396/1 400/379/1 399/378/1
f 420/397/184 401/380/184 400/379/184
f 421/398/1 402/381/1 401/380/1
f 422/399/1 403/382/1 402/381/1
f 423/400/1 404/37/1 403/382/1
f 42/401/1 405/383/1 41/402/1
f 425/403/1 406/384/1 405/383/1
f 406/384/185 427/404/185 407/385/185
f 407/385/186 428/405/186 408/386/186
f 428/405/119 409/387/119 408/386/119
f 409/387/1 430/406/1 410/388/1
f 410/388/1 431/407/1 411/389/1
f 411/389/1 432/408/1 412/390/1
f 432/408/172 413/409/172 412/390/172
f 433/410/173 414/391/173 413/409/173
f 414/391/1 435/411/1 415/393/1
f 415/393/1 436/412/1 416/394/1
f 436/412/1 417/413/1 416/394/1
f 417/413/1 438/414/1 418/395/1
f 418/395/1 439/415/1 419/396/1
f 419/396/187 440/416/187 420/397/187
f 440/416/1 421/398/1 420/397/1
f 441/417/1 422/399/1 421/398/1
f 442/418/1 423/400/1 422/399/1
f 443/419/1 424/40/1 423/400/1
f 43/420/1 425/403/1 42/401/1
f 445/421/1 426/422/1 425/403/1
f 446/423/1 427/404/1 426/422/1
f 447/424/118 428/405/118 427/404/118
f 448/425/119 429/426/119 428/405/119
f 449/427/1 430/406/1 429/426/1
f 450/428/1 431/407/1 430/406/1
f 451/429/1 432/408/1 431/407/1
f 452/430/172 433/410/172 432/408/172
f 453/431/173 434/432/173 433/410/173
f 434/432/1 455/433/1 435/411/1
f 455/433/1 436/412/1 435/411/1
f 456/434/1 437/435/1 436/412/1
f 457/436/1 438/414/1 437/435/1
f 458/437/1 439/415/1 438/414/1
f 459/438/187 440/416/187 439/415/187
f 460/439/1 441/417/1 440/416/1
f 461/440/1 442/418/1 441/417/1
f 462/441/1 443/419/1 442/418/1
f 463/442/1 444/39/1 443/419/1
f 44/443/1 445/421/1 43/420/1
f 465/444/1 446/423/1 445/421/1
f 466/445/1 447/424/1 446/423/1
f 447/424/182 468/446/182 448/425/182
f 448/425/183 469/447/183 449/427/183
f 449/427/188 470/448/188 450/428/188
f 450/428/188 471/449/188 451/429/188
f 451/429/188 472/450/188 452/430/188
f 472/450/189 453/431/189 452/430/189
f 473/451/190 454/452/190 453/431/190
f 454/452/1 475/453/1 455/433/1
f 455/433/1 476/454/1 456/434/1
f 476/454/1 457/436/1 456/434/1
f 457/436/1 478/455/1 458/437/1
f 458/437/1 479/456/1 459/438/1
f 459/438/187 480/457/187 460/439/187
f 480/457/1 461/440/1 460/439/1
f 481/458/1 462/441/1 461/440/1
f 482/459/1 463/442/1 462/441/1
f 483/460/191 464/41/191 463/442/191
f 2/461/1 465/444/1 44/443/1
f 465/444/1 46/462/1 466/445/1
f 466/445/1 47/463/1 467/464/1
f 467/464/185 48/465/185 468/446/185
f 468/446/192 49/466/192 469/447/192
f 469/447/193 50/467/193 470/448/193
f 50/467/193 471/449/193 470/448/193
f 51/468/193 472/450/193 471/449/193
f 52/469/194 473/451/194 472/450/194
f 53/470/195 474/471/195 473/451/195
f 474/471/1 55/472/1 475/453/1
f 55/472/1 476/454/1 475/453/1
f 476/454/1 57/473/1 477/474/1
f 57/473/1 478/455/1 477/474/1
f 58/475/1 479/456/1 478/455/1
f 479/456/196 60/476/196 480/457/196
f 60/476/191 481/458/191 480/457/191
f 61/477/191 482/459/191 481/458/191
f 62/478/3 483/460/3 482/459/3
f 483/460/1 64/479/1 484/1/1
f 484/1/1 64/479/1 4/2/1
f 104/4/1 84/8/1 3/5/1
f 124/7/1 83/10/1 84/8/1
f 144/9/1 82/12/1 83/10/1
f 164/11/1 81/14/1 82/12/1
f 184/13/1 80/16/1 81/14/1
f 204/15/1 79/18/1 80/16/1
f 224/17/1 78/20/1 79/18/1
f 244/19/1 77/22/1 78/20/1
f 264/21/1 76/24/1 77/22/1
f 284/23/1 75/26/1 76/24/1
f 304/25/1 74/28/1 75/26/1
f 324/27/1 73/30/1 74/28/1
f 344/29/1 72/32/1 73/30/1
f 364/31/1 71/34/1 72/32/1
f 384/33/1 70/36/1 71/34/1
f 384/33/197 404/37/197 69/35/197
f 404/37/2 424/40/2 68/38/2
f 444/39/2 67/42/2 68/38/2
f 464/41/2 66/43/2 67/42/2
f 484/1/1 65/3/1 66/43/1
f 1/44/1 25/81/1 85/45/1
f 24/46/1 85/45/1 86/47/1
f 86/47/1 87/50/1 22/49/1
f 87/50/1 88/52/1 21/51/1
f 88/52/4 89/86/4 20/53/4
f 20/53/1 89/86/1 90/54/1
f 19/55/1 90/54/1 91/56/1
f 18/57/5 91/56/5 92/58/5
f 17/59/1 92/58/1 93/60/1
f 16/61/1 93/60/1 94/62/1
f 94/62/1 95/92/1 14/64/1
f 14/64/1 95/92/1 96/65/1
f 13/66/1 96/65/1 97/67/1
f 12/68/1 97/67/1 98/69/1
f 98/69/198 99/72/198 10/71/198
f 99/72/199 100/97/199 9/73/199
f 9/73/7 100/97/7 101/74/7
f 8/75/200 101/74/200 102/76/200
f 7/77/201 102/76/201 103/78/201
f 6/79/1 103/78/1 104/4/1
f 26/80/1 105/82/1 85/45/1
f 105/82/1 106/83/1 86/47/1
f 106/83/198 107/84/198 87/50/198
f 107/84/199 108/85/199 88/52/199
f 108/85/8 109/106/8 89/86/8
f 89/86/7 109/106/7 110/87/7
f 90/54/7 110/87/7 111/88/7
f 91/56/9 111/88/9 112/89/9
f 92/58/7 112/89/7 113/90/7
f 93/60/7 113/90/7 114/91/7
f 114/91/202 115/93/202 95/92/202
f 115/93/203 116/94/203 96/65/203
f 116/94/11 117/114/11 97/67/11
f 97/67/204 117/114/204 118/95/204
f 118/95/205 119/96/205 99/72/205
f 119/96/206 120/98/206 100/97/206
f 120/98/14 121/118/14 101/74/14
f 101/74/207 121/118/207 122/99/207
f 102/76/208 122/99/208 123/100/208
f 123/100/1 124/7/1 104/4/1
f 27/101/1 125/102/1 105/82/1
f 125/102/1 126/103/1 106/83/1
f 126/103/209 127/104/209 107/84/209
f 127/104/206 128/105/206 108/85/206
f 128/105/210 129/107/210 109/106/210
f 129/107/211 130/108/211 110/87/211
f 130/108/20 131/129/20 111/88/20
f 111/88/212 131/129/212 132/109/212
f 112/89/213 132/109/213 133/110/213
f 113/90/214 133/110/214 134/111/214
f 134/111/215 135/112/215 115/93/215
f 135/112/216 136/133/216 116/94/216
f 116/94/217 136/133/217 137/113/217
f 117/114/218 137/113/218 138/115/218
f 118/95/219 138/115/219 139/116/219
f 139/116/220 140/117/220 120/98/220
f 140/117/46 141/119/46 121/118/46
f 141/119/31 142/120/31 122/99/31
f 142/120/32 143/121/32 123/100/32
f 143/121/1 144/9/1 124/7/1
f 28/122/1 145/123/1 125/102/1
f 145/123/1 146/124/1 126/103/1
f 146/124/33 147/125/33 127/104/33
f 147/125/34 148/126/34 128/105/34
f 148/126/35 149/127/35 129/107/35
f 149/127/36 150/147/36 130/108/36
f 130/108/1 150/147/1 151/128/1
f 131/129/221 151/128/221 152/130/221
f 152/130/222 153/150/222 133/110/222
f 133/110/39 153/150/39 154/131/39
f 154/131/40 155/132/40 135/112/40
f 155/132/1 156/134/1 136/133/1
f 156/134/223 157/135/223 137/113/223
f 157/135/224 158/136/224 138/115/224
f 158/136/225 159/137/225 139/116/225
f 159/137/226 160/156/226 140/117/226
f 140/117/227 160/156/227 161/138/227
f 161/138/31 162/139/31 142/120/31
f 162/139/32 163/140/32 143/121/32
f 163/140/1 164/11/1 144/9/1
f 28/122/1 29/160/1 165/141/1
f 145/123/1 165/141/1 166/142/1
f 146/124/17 166/142/17 167/143/17
f 147/125/228 167/143/228 168/144/228
f 148/126/229 168/144/229 169/145/229
f 149/127/230 169/145/230 170/146/230
f 170/146/51 171/148/51 151/128/51
f 171/148/231 172/167/231 152/130/231
f 152/130/232 172/167/232 173/149/232
f 153/150/5 173/149/5 174/151/5
f 174/151/68 175/170/68 155/132/68
f 155/132/54 175/170/54 176/152/54
f 176/152/233 177/153/233 157/135/233
f 177/153/234 178/154/234 158/136/234
f 178/154/235 179/175/235 159/137/235
f 159/137/236 179/175/236 180/155/236
f 160/156/237 180/155/237 181/157/237
f 181/157/31 182/158/31 162/139/31
f 182/158/32 183/179/32 163/140/32
f 163/140/1 183/179/1 184/13/1
f 30/159/1 185/161/1 165/141/1
f 185/161/1 186/183/1 166/142/1
f 166/142/1 186/183/1 187/162/1
f 167/143/238 187/162/238 188/163/238
f 168/144/239 188/163/239 189/164/239
f 169/145/240 189/164/240 190/165/240
f 190/165/64 191/189/64 171/148/64
f 171/148/241 191/189/241 192/166/241
f 172/167/242 192/166/242 193/168/242
f 193/168/54 194/169/54 174/151/54
f 194/169/243 195/171/243 175/170/243
f 195/171/244 196/172/244 176/152/244
f 196/172/245 197/173/245 177/153/245
f 197/173/246 198/174/246 178/154/246
f 198/174/247 199/197/247 179/175/247
f 179/175/248 199/197/248 200/176/248
f 180/155/249 200/176/249 201/177/249
f 201/177/31 202/178/31 182/158/31
f 202/178/32 203/180/32 183/179/32
f 203/180/1 204/15/1 184/13/1
f 31/181/1 205/182/1 185/161/1
f 205/182/1 206/184/1 186/183/1
f 206/184/1 207/185/1 187/162/1
f 207/185/250 208/186/250 188/163/250
f 208/186/251 209/187/251 189/164/251
f 209/187/78 210/188/78 190/165/78
f 210/188/78 211/209/78 191/189/78
f 191/189/78 211/209/78 212/190/78
f 212/190/252 213/191/252 193/168/252
f 213/191/253 214/192/253 194/169/253
f 214/192/254 215/193/254 195/171/254
f 215/193/255 216/194/255 196/172/255
f 216/194/256 217/195/256 197/173/256
f 217/195/257 218/216/257 198/174/257
f 198/174/258 218/216/258 219/196/258
f 199/197/259 219/196/259 220/198/259
f 200/176/260 220/198/260 221/199/260
f 221/199/261 222/200/261 202/178/261
f 222/200/16 223/201/16 203/180/16
f 223/201/1 224/17/1 204/15/1
f 32/202/1 225/203/1 205/182/1
f 225/203/1 226/204/1 206/184/1
f 226/204/262 227/205/262 207/185/262
f 227/205/263 228/206/263 208/186/263
f 228/206/264 229/207/264 209/187/264
f 229/207/265 230/208/265 210/188/265
f 230/208/94 231/228/94 211/209/94
f 211/209/266 231/228/266 232/210/266
f 232/210/267 233/211/267 213/191/267
f 233/211/268 234/212/268 214/192/268
f 234/212/97 235/213/97 215/193/97
f 235/213/97 236/214/97 216/194/97
f 236/214/269 237/215/269 217/195/269
f 237/215/270 238/235/270 218/216/270
f 218/216/271 238/235/271 239/217/271
f 219/196/272 239/217/272 240/218/272
f 220/198/273 240/218/273 241/219/273
f 241/219/274 242/220/274 222/200/274
f 242/220/1 243/221/1 223/201/1
f 243/221/1 244/19/1 224/17/1
f 33/222/1 245/223/1 225/203/1
f 245/223/1 246/224/1 226/204/1
f 246/224/275 247/225/275 227/205/275
f 247/225/276 248/226/276 228/206/276
f 248/226/277 249/246/277 229/207/277
f 229/207/277 249/246/277 250/227/277
f 250/227/109 251/229/109 231/228/109
f 251/229/277 252/250/277 232/210/277
f 232/210/278 252/250/278 253/230/278
f 233/211/279 253/230/279 254/231/279
f 234/212/1 254/231/1 255/232/1
f 255/232/1 256/233/1 236/214/1
f 256/233/280 257/254/280 237/215/280
f 237/215/281 257/254/281 258/234/281
f 238/235/282 258/234/282 259/236/282
f 239/217/283 259/236/283 260/237/283
f 240/218/284 260/237/284 261/238/284
f 241/219/1 261/238/1 262/239/1
f 242/220/1 262/239/1 263/240/1
f 243/221/1 263/240/1 264/21/1
f 34/241/1 265/242/1 245/223/1
f 265/242/1 266/243/1 246/224/1
f 266/243/118 267/244/118 247/225/118
f 267/244/119 268/245/119 248/226/119
f 268/245/285 269/247/285 249/246/285
f 269/247/286 270/267/286 250/227/286
f 250/227/287 270/267/287 271/248/287
f 251/229/288 271/248/288 272/249/288
f 272/249/121 273/270/121 253/230/121
f 253/230/122 273/270/122 274/251/122
f 274/251/1 275/252/1 255/232/1
f 275/252/289 276/253/289 256/233/289
f 276/253/290 277/275/290 257/254/290
f 257/254/291 277/275/291 278/255/291
f 258/234/292 278/255/292 279/256/292
f 259/236/293 279/256/293 280/257/293
f 260/237/294 280/257/294 281/258/294
f 281/258/1 282/259/1 262/239/1
f 282/259/1 283/260/1 263/240/1
f 283/260/1 284/23/1 264/21/1
f 35/261/1 285/262/1 265/242/1
f 285/262/1 286/263/1 266/243/1
f 286/263/118 287/264/118 267/244/118
f 287/264/119 288/265/119 268/245/119
f 288/265/295 289/266/295 269/247/295
f 289/266/296 290/289/296 270/267/296
f 270/267/297 290/289/297 291/268/297
f 271/248/298 291/268/298 292/269/298
f 292/269/121 293/271/121 273/270/121
f 293/271/122 294/272/122 274/251/122
f 294/272/1 295/273/1 275/252/1
f 295/273/299 296/274/299 276/253/299
f 296/274/300 297/276/300 277/275/300
f 297/276/301 298/277/301 278/255/301
f 298/277/302 299/278/302 279/256/302
f 299/278/303 300/279/303 280/257/303
f 300/279/304 301/280/304 281/258/304
f 301/280/1 302/281/1 282/259/1
f 302/281/1 303/282/1 283/260/1
f 303/282/1 304/25/1 284/23/1
f 36/283/1 305/284/1 285/262/1
f 305/284/1 306/285/1 286/263/1
f 306/285/118 307/286/118 287/264/118
f 307/286/119 308/287/119 288/265/119
f 308/287/138 309/288/138 289/266/138
f 309/288/139 310/306/139 290/289/139
f 290/289/140 310/306/140 311/290/140
f 291/268/141 311/290/141 312/291/141
f 312/291/121 313/292/121 293/271/121
f 313/292/122 314/293/122 294/272/122
f 314/293/1 315/311/1 295/273/1
f 295/273/132 315/311/132 316/294/132
f 316/294/305 317/295/305 297/276/305
f 317/295/306 318/296/306 298/277/306
f 318/296/307 319/315/307 299/278/307
f 299/278/308 319/315/308 320/297/308
f 300/279/309 320/297/309 321/298/309
f 321/298/148 322/319/148 302/281/148
f 302/281/310 322/319/310 323/299/310
f 323/299/1 324/27/1 304/25/1
f 37/300/1 325/301/1 305/284/1
f 325/301/1 326/302/1 306/285/1
f 326/302/118 327/303/118 307/286/118
f 327/303/119 328/325/119 308/287/119
f 308/287/128 328/325/128 329/304/128
f 309/288/311 329/304/311 330/305/311
f 330/305/312 331/307/312 311/290/312
f 331/307/131 332/329/131 312/291/131
f 312/291/313 332/329/313 333/308/313
f 313/292/314 333/308/314 334/309/314
f 314/293/315 334/309/315 335/310/315
f 335/310/316 336/312/316 316/294/316
f 336/312/317 337/335/317 317/295/317
f 317/295/317 337/335/317 338/313/317
f 318/296/318 338/313/318 339/314/318
f 319/315/319 339/314/319 340/316/319
f 320/297/320 340/316/320 341/317/320
f 321/298/321 341/317/321 342/318/321
f 322/319/162 342/318/162 343/320/162
f 323/299/1 343/320/1 344/29/1
f 38/321/1 345/322/1 325/301/1
f 345/322/1 346/323/1 326/302/1
f 346/323/118 347/324/118 327/303/118
f 347/324/119 348/346/119 328/325/119
f 328/325/1 348/346/1 349/326/1
f 329/304/322 349/326/322 350/327/322
f 350/327/322 351/328/322 331/307/322
f 351/328/1 352/351/1 332/329/1
f 332/329/172 352/351/172 353/330/172
f 333/308/323 353/330/323 354/331/323
f 334/309/324 354/331/324 355/332/324
f 335/310/325 355/332/325 356/333/325
f 336/312/1 356/333/1 357/334/1
f 357/334/1 358/336/1 338/313/1
f 358/336/1 359/337/1 339/314/1
f 359/337/1 360/338/1 340/316/1
f 360/338/1 361/339/1 341/317/1
f 361/339/171 362/340/171 342/318/171
f 362/340/162 363/341/162 343/320/162
f 363/341/1 364/31/1 344/29/1
f 39/342/1 365/343/1 345/322/1
f 365/343/1 366/344/1 346/323/1
f 366/344/118 367/345/118 347/324/118
f 367/345/119 368/347/119 348/346/119
f 368/347/1 369/348/1 349/326/1
f 369/348/1 370/349/1 350/327/1
f 370/349/1 371/350/1 351/328/1
f 371/350/1 372/370/1 352/351/1
f 352/351/172 372/370/172 373/352/172
f 373/352/173 374/373/173 354/331/173
f 354/331/1 374/373/1 375/353/1
f 355/332/174 375/353/174 376/354/174
f 376/354/176 377/355/176 357/334/176
f 377/355/176 378/356/176 358/336/176
f 378/356/176 379/357/176 359/337/176
f 379/357/326 380/358/326 360/338/326
f 380/358/177 381/359/177 361/339/177
f 381/359/180 382/360/180 362/340/180
f 382/360/1 383/361/1 363/341/1
f 383/361/1 384/33/1 364/31/1
f 40/362/1 385/363/1 365/343/1
f 385/363/1 386/364/1 366/344/1
f 386/364/118 387/365/118 367/345/118
f 387/365/119 388/366/119 368/347/119
f 388/366/1 389/367/1 369/348/1
f 389/367/1 390/368/1 370/349/1
f 390/368/1 391/369/1 371/350/1
f 391/369/1 392/371/1 372/370/1
f 392/371/172 393/372/172 373/352/172
f 393/372/173 394/392/173 374/373/173
f 374/373/1 394/392/1 395/374/1
f 375/353/1 395/374/1 396/375/1
f 396/375/180 397/376/180 377/355/180
f 397/376/180 398/377/180 378/356/180
f 398/377/180 399/378/180 379/357/180
f 399/378/1 400/379/1 380/358/1
f 400/379/184 401/380/184 381/359/184
f 401/380/181 402/381/181 382/360/181
f 402/381/181 403/382/181 383/361/181
f 403/382/181 404/37/181 384/33/181
f 40/362/1 41/402/1 405/383/1
f 385/363/1 405/383/1 406/384/1
f 386/364/105 406/384/105 407/385/105
f 387/365/327 407/385/327 408/386/327
f 388/366/183 408/386/183 409/387/183
f 389/367/1 409/387/1 410/388/1
f 410/388/1 411/389/1 391/369/1
f 411/389/1 412/390/1 392/371/1
f 412/390/172 413/409/172 393/372/172
f 393/372/173 413/409/173 414/391/173
f 394/392/1 414/391/1 415/393/1
f 395/374/1 415/393/1 416/394/1
f 416/394/1 417/413/1 397/376/1
f 397/376/1 417/413/1 418/395/1
f 418/395/1 419/396/1 399/378/1
f 419/396/184 420/397/184 400/379/184
f 420/397/1 421/398/1 401/380/1
f 421/398/1 422/399/1 402/381/1
f 422/399/1 423/400/1 403/382/1
f 423/400/1 424/40/1 404/37/1
f 42/401/1 425/403/1 405/383/1
f 425/403/1 426/422/1 406/384/1
f 406/384/1 426/422/1 427/404/1
f 407/385/328 427/404/328 428/405/328
f 428/405/119 429/426/119 409/387/119
f 409/387/1 429/426/1 430/406/1
f 410/388/1 430/406/1 431/407/1
f 411/389/1 431/407/1 432/408/1
f 432/408/172 433/410/172 413/409/172
f 433/410/173 434/432/173 414/391/173
f 414/391/1 434/432/1 435/411/1
f 415/393/1 435/411/1 436/412/1
f 436/412/1 437/435/1 417/413/1
f 417/413/1 437/435/1 438/414/1
f 418/395/1 438/414/1 439/415/1
f 419/396/187 439/415/187 440/416/187
f 440/416/1 441/417/1 421/398/1
f 441/417/1 442/418/1 422/399/1
f 442/418/1 443/419/1 423/400/1
f 443/419/1 444/39/1 424/40/1
f 43/420/1 445/421/1 425/403/1
f 445/421/1 446/423/1 426/422/1
f 446/423/1 447/424/1 427/404/1
f 447/424/118 448/425/118 428/405/118
f 448/425/119 449/427/119 429/426/119
f 449/427/1 450/428/1 430/406/1
f 450/428/1 451/429/1 431/407/1
f 451/429/1 452/430/1 432/408/1
f 452/430/172 453/431/172 433/410/172
f 453/431/173 454/452/173 434/432/173
f 434/432/1 454/452/1 455/433/1
f 455/433/1 456/434/1 436/412/1
f 456/434/1 457/436/1 437/435/1
f 457/436/1 458/437/1 438/414/1
f 458/437/1 459/438/1 439/415/1
f 459/438/187 460/439/187 440/416/187
f 460/439/1 461/440/1 441/417/1
f 461/440/1 462/441/1 442/418/1
f 462/441/1 463/442/1 443/419/1
f 463/442/1 464/41/1 444/39/1
f 44/443/1 465/444/1 445/421/1
f 465/444/1 466/445/1 446/423/1
f 466/445/1 467/464/1 447/424/1
f 447/424/105 467/464/105 468/446/105
f 448/425/327 468/446/327 469/447/327
f 449/427/188 469/447/188 470/448/188
f 450/428/188 470/448/188 471/449/188
f 451/429/188 471/449/188 472/450/188
f 472/450/329 473/451/329 453/431/329
f 473/451/330 474/471/330 454/452/330
f 454/452/1 474/471/1 475/453/1
f 455/433/1 475/453/1 476/454/1
f 476/454/1 477/474/1 457/436/1
f 457/436/1 477/474/1 478/455/1
f 458/437/1 478/455/1 479/456/1
f 459/438/187 479/456/187 480/457/187
f 480/457/1 481/458/1 461/440/1
f 481/458/1 482/459/1 462/441/1
f 482/459/3 483/460/3 463/442/3
f 483/460/191 484/1/191 464/41/191
f 2/461/1 45/480/1 465/444/1
f 465/444/1 45/480/1 46/462/1
f 466/445/1 46/462/1 47/463/1
f 467/464/1 47/463/1 48/465/1
f 468/446/331 48/465/331 49/466/331
f 469/447/193 49/466/193 50/467/193
f 50/467/193 51/468/193 471/449/193
f 51/468/193 52/469/193 472/450/193
f 52/469/331 53/470/331 473/451/331
f 53/470/1 54/481/1 474/471/1
f 474/471/1 54/481/1 55/472/1
f 55/472/1 56/482/1 476/454/1
f 476/454/1 56/482/1 57/473/1
f 57/473/1 58/475/1 478/455/1
f 58/475/1 59/483/1 479/456/1
f 479/456/1 59/483/1 60/476/1
f 60/476/191 61/477/191 481/458/191
f 61/477/191 62/478/191 482/459/191
f 62/478/1 63/484/1 483/460/1
f 483/460/1 63/484/1 64/479/1
