# Sphere_LowPoly.obj
o Sphere

v  0.000  0.000  1.000
v  0.894  0.000  0.447
v  0.276  0.851  0.447
v -0.724  0.526  0.447
v -0.724 -0.526  0.447
v  0.276 -0.851  0.447
v  0.724  0.526 -0.447
v -0.276  0.851 -0.447
v -0.894  0.000 -0.447
v -0.276 -0.851 -0.447
v  0.724 -0.526 -0.447
v  0.000  0.000 -1.000

vn  0.000  0.000  1.000
vn  0.894  0.000  0.447
vn  0.276  0.851  0.447
vn -0.724  0.526  0.447
vn -0.724 -0.526  0.447
vn  0.276 -0.851  0.447
vn  0.724  0.526 -0.447
vn -0.276  0.851 -0.447
vn -0.894  0.000 -0.447
vn -0.276 -0.851 -0.447
vn  0.724 -0.526 -0.447
vn  0.000  0.000 -1.000

vt 0.5 0.5

f 1/1/1 2/1/2 3/1/3
f 1/1/1 3/1/3 4/1/4
f 1/1/1 4/1/4 5/1/5
f 1/1/1 5/1/5 6/1/6
f 1/1/1 6/1/6 2/1/2
f 2/1/2 7/1/7 3/1/3
f 3/1/3 7/1/7 8/1/8
f 3/1/3 8/1/8 4/1/4
f 4/1/4 8/1/8 9/1/9
f 4/1/4 9/1/9 5/1/5
f 5/1/5 9/1/9 10/1/10
f 5/1/5 10/1/10 6/1/6
f 6/1/6 10/1/10 11/1/11
f 6/1/6 11/1/11 2/1/2
f 2/1/2 11/1/11 7/1/7
f 12/1/12 8/1/8 7/1/7
f 12/1/12 9/1/9 8/1/8
f 12/1/12 10/1/10 9/1/9
f 12/1/12 11/1/11 10/1/10
f 12/1/12 7/1/7 11/1/11