# Cube.obj
o Cube

v -1.0 -1.0  1.0
v  1.0 -1.0  1.0
v -1.0  1.0  1.0
v  1.0  1.0  1.0
v -1.0  1.0 -1.0
v  1.0  1.0 -1.0
v -1.0 -1.0 -1.0
v  1.0 -1.0 -1.0

vt 0.0 0.0
vt 1.0 0.0
vt 0.0 1.0
vt 1.0 1.0

vn  0.0  0.0  1.0
vn  0.0  0.0 -1.0
vn  0.0  1.0  0.0
vn  0.0 -1.0  0.0
vn  1.0  0.0  0.0
vn -1.0  0.0  0.0

f 1/1/1 2/2/1 3/3/1
f 3/3/1 2/2/1 4/4/1
f 3/3/3 4/4/3 5/1/3
f 5/1/3 4/4/3 6/2/3
f 5/1/2 6/2/2 7/3/2
f 7/3/2 6/2/2 8/4/2
f 7/3/4 8/4/4 1/1/4
f 1/1/4 8/4/4 2/2/4
f 2/2/5 8/4/5 4/4/5
f 4/4/5 8/4/5 6/2/5
f 7/3/6 1/1/6 5/1/6
f 5/1/6 1/1/6 3/3/6